<?xml version="1.0" standalone="no"?>
<!DOCTYPE svg PUBLIC "-//W3C//DTD SVG 20010904//EN"
 "http://www.w3.org/TR/2001/REC-SVG-20010904/DTD/svg10.dtd">
<svg version="1.0" xmlns="http://www.w3.org/2000/svg"
 width="800.000000pt" height="300.000000pt" viewBox="0 0 800.000000 300.000000"
 preserveAspectRatio="xMidYMid meet">

<g transform="translate(0.000000,300.000000) scale(0.100000,-0.100000)"
fill="#000000" stroke="none">
<path d="M7615 2694 c-154 -135 -289 -254 -300 -265 l-20 -20 28 -25 c15 -13
40 -24 55 -24 34 0 100 -64 131 -127 18 -37 21 -60 21 -181 0 -190 10 -182
-218 -182 -187 0 -219 -7 -257 -58 -20 -26 -20 -45 -23 -799 -3 -832 -5 -798
47 -856 46 -54 189 -64 311 -22 42 14 96 25 127 25 50 0 53 -1 53 -25 l0 -25
170 0 170 0 0 1415 c0 778 -3 1415 -7 1414 -5 0 -134 -110 -288 -245z m-85
-1656 c0 -409 0 -412 -22 -435 -27 -29 -45 -29 -75 -1 l-23 21 0 414 0 413 60
0 60 0 0 -412z"/>
<path d="M50 2721 c0 -5 13 -14 30 -21 16 -7 50 -34 75 -61 94 -100 85 -61
290 -1254 120 -693 184 -1092 180 -1112 -7 -37 -64 -103 -89 -103 -9 0 -16 -4
-16 -10 0 -6 125 -10 355 -10 195 0 355 3 355 8 -1 4 -20 16 -43 27 -31 15
-45 29 -56 57 -13 35 -8 70 75 538 56 314 92 492 96 477 4 -12 44 -238 89
-502 79 -465 81 -481 66 -517 -11 -25 -28 -43 -51 -55 -20 -9 -36 -20 -36 -25
0 -4 160 -8 355 -8 195 0 355 2 355 5 0 2 -20 13 -44 24 -50 22 -76 61 -76
113 0 43 338 1935 352 1971 23 58 15 57 476 57 l424 0 253 198 c140 108 254
200 254 205 1 4 -382 7 -849 7 -947 0 -897 4 -946 -69 -23 -36 -36 -95 -114
-536 -48 -272 -89 -497 -91 -500 -5 -4 -142 737 -159 855 -12 87 -4 132 36
192 19 28 34 52 34 54 0 2 -148 4 -330 4 -351 0 -359 -1 -309 -46 32 -28 51
-81 51 -138 -1 -73 -155 -931 -164 -909 -15 38 -158 857 -158 906 0 57 25 121
59 151 11 11 21 23 21 28 0 4 -169 8 -375 8 -209 0 -375 -4 -375 -9z"/>
<path d="M3588 2537 c-136 -106 -247 -197 -247 -203 -1 -7 10 -15 24 -18 14
-4 33 -18 42 -33 17 -25 18 -91 21 -1020 3 -1095 5 -1052 -58 -1076 -16 -6
-30 -17 -30 -24 0 -10 48 -13 219 -13 l219 0 31 26 c17 14 31 33 31 41 0 9 19
-2 50 -30 64 -58 131 -75 231 -59 122 18 199 73 251 180 l33 67 3 633 c3 693
2 707 -54 792 -57 86 -179 120 -299 85 -64 -18 -170 -68 -180 -85 -22 -35 -25
24 -25 460 0 259 -3 470 -7 470 -5 -1 -119 -87 -255 -193z m377 -1487 l0 -405
-40 0 -40 0 -3 395 c-1 217 0 401 3 408 3 9 18 12 42 10 l38 -3 0 -405z"/>
<path d="M4636 2594 c-94 -57 -174 -108 -180 -114 -7 -7 1 -21 24 -45 l33 -34
-6 -1108 -7 -1107 -25 -26 c-14 -14 -25 -29 -25 -33 0 -4 97 -7 215 -7 l215 0
0 1258 0 1258 -33 32 c-18 18 -35 32 -37 31 -3 0 -81 -48 -174 -105z"/>
<path d="M5109 2013 c-54 -4 -58 -6 -103 -59 l-48 -54 2 -197 c1 -187 2 -199
22 -220 12 -13 24 -23 27 -23 3 0 57 41 120 90 l114 90 64 0 63 0 0 -85 0 -85
-46 0 c-40 0 -55 -7 -127 -61 -45 -34 -128 -107 -184 -163 l-103 -101 0 -415
c0 -244 4 -429 10 -450 6 -20 34 -59 67 -92 l57 -58 170 0 c144 0 172 3 188
17 17 15 19 15 36 0 16 -15 47 -17 230 -17 l212 0 0 30 c0 17 -9 48 -20 70
-20 38 -20 59 -20 842 l0 803 -72 72 -72 73 -266 -2 c-146 -1 -290 -3 -321 -5z
m349 -1165 c-3 -168 -5 -197 -22 -220 -15 -23 -26 -28 -62 -28 l-44 0 0 197
c0 188 1 198 22 220 16 17 32 23 66 23 l44 0 -4 -192z"/>
<path d="M6063 1883 l-143 -86 0 -89 c0 -93 1 -95 43 -60 20 18 18 20 51 -45
l26 -52 0 -706 0 -705 212 0 212 0 -32 33 -32 33 0 615 0 615 28 27 c17 17 39
27 57 27 18 0 40 -10 57 -27 l28 -27 0 -620 0 -620 27 -28 27 -28 183 0 183 0
0 123 0 123 -30 29 -30 29 0 706 0 706 -58 57 -58 57 -196 0 c-195 0 -197 0
-226 -25 -17 -14 -36 -25 -44 -25 -8 0 -25 11 -38 25 -18 19 -34 25 -64 25
-34 0 -66 -15 -183 -87z"/>
<path d="M2452 1865 c-62 -19 -108 -58 -126 -107 -15 -39 -16 -119 -14 -768
l3 -725 24 -39 c45 -73 61 -76 432 -76 369 0 390 3 458 72 59 59 83 129 89
265 5 127 -2 183 -23 183 -8 0 -15 -6 -15 -13 0 -27 -71 -96 -118 -114 -67
-26 -302 -26 -349 0 -49 26 -66 59 -60 113 7 65 35 95 263 286 229 192 259
223 279 292 19 64 21 457 3 519 -16 52 -63 99 -115 115 -59 18 -672 16 -731
-3z m398 -305 c45 -24 49 -161 7 -235 -12 -21 -46 -58 -74 -83 l-53 -45 0 152
c0 187 11 218 78 220 13 1 32 -4 42 -9z"/>
</g>
</svg>
